# xmcd
#
# Track frame offsets:
#	150
#	13085
#	31915
#	49572
#	63645
#	79832
#	99136
#	119357
#	135770
#	157896
#	176350
#	197022
#
# Disc length: 2935 seconds
#
# Revision: 1
# Processed by: cddbd v1.5.2PL0 Copyright (c) Steve Scherf et al.
# Submitted via: audiograbber 1.83.01
#
DISCID=880b750c
DTITLE=John Hiatt - Drive South
DYEAR=1989
DGENRE=Blues
TTITLE0=The Love That Harms
TTITLE1=Thank You Girl
TTITLE2=Drive South
TTITLE3=Book Lovers
TTITLE4=Falling Up
TTITLE5=Lipstick Sunset
TTITLE6=Child of the Wild Blue Yonder
TTITLE7=Paper Thin
TTITLE8=The Rest of the Dream
TTITLE9=Have a Little Faith in Me
TTITLE10=Something Wild
TTITLE11=Angel Eyes [Live]
EXTD=
EXTT0=
EXTT1=
EXTT2=
EXTT3=
EXTT4=
EXTT5=
EXTT6=
EXTT7=
EXTT8=
EXTT9=
EXTT10=
EXTT11=
PLAYORDER=
